<svg data-v-6805eed4="" version="1.0" xmlns="http://www.w3.org/2000/svg" xmlns:xlink="http://www.w3.org/1999/xlink" width="100%" height="100%" viewBox="0 0 340.000000 250.000000" preserveAspectRatio="xMidYMid meet" color-interpolation-filters="sRGB" style="margin: auto;"> <rect data-v-6805eed4="" x="0" y="0" width="100%" height="100%" fill="#feffff" fill-opacity="1" class="background"></rect> <rect data-v-6805eed4="" x="0" y="0" width="100%" height="100%" fill="url(#watermark)" fill-opacity="1" class="watermarklayer"></rect> <g data-v-6805eed4="" fill="#333" class="iconlettersvg-g iconlettersvg" transform="translate(108.10000610351562,96.99990844726562)"><g><g class="tp-name" transform="translate(0,0)"><g transform="scale(1)"><g transform="translate(0, 0)"><g class="name-imagesvg"><g><rect fill="#333" fill-opacity="0" stroke-width="2" x="0" y="0" width="41.84746747828819" height="41.84411994869229" class="image-rect"></rect> <svg x="0" y="0" width="41.84746747828819" height="41.84411994869229" filtersec="colorsb9851087899" class="image-svg-svg primary" style="overflow: visible;"><svg xmlns="http://www.w3.org/2000/svg" viewBox="0 0 127.44999694824219 127.44000244140625"><title>资源 1</title><path fill="#c71343" d="M127.44 127.44H0V0l127.44 127.44z"></path><path fill="#4195d2" d="M65.07 0h62.38v127.14H65.07z"></path><path fill="#00234b" d="M65.07 65.07v62.37h62.37L65.07 65.07z"></path></svg></svg> <!----></g></g></g><g transform="translate(41.84746747828819, 0)"><g class="name-imagesvg"><g><rect fill="#333" fill-opacity="0" stroke-width="2" x="0" y="0" width="41.84418583992182" height="41.84418583992182" class="image-rect"></rect> <svg x="0" y="0" width="41.84418583992182" height="41.84418583992182" filtersec="colorsb5954751232" class="image-svg-svg primary" style="overflow: visible;"><svg xmlns="http://www.w3.org/2000/svg" viewBox="0 -0.0000013334620234672911 132 132"><title>资源 25</title><path d="M66 0A66 66 0 1 1 0 66 66 66 0 0 1 66 0z" fill="#f3ce00"></path><path d="M66 0a65.95 65.95 0 0 1 46.48 112.75L19.19 19.19A67 67 0 0 1 66 0z" fill="#45207b"></path></svg></svg> <!----></g></g></g><g transform="translate(83.69165331821, 0)"><g class="name-imagesvg"><g><rect fill="#333" fill-opacity="0" stroke-width="2" x="0" y="0" width="40.108336810342124" height="41.84402705247895" class="image-rect"></rect> <svg x="0" y="0" width="40.108336810342124" height="41.84402705247895" filtersec="colorsb2722960013" class="image-svg-svg primary" style="overflow: visible;"><svg xmlns="http://www.w3.org/2000/svg" viewBox="0 0 117.84000396728516 122.94000244140625"><title>资源 24</title><path d="M0 0h79.16a38.77 38.77 0 0 1 38.68 38.68 38.77 38.77 0 0 1-38.68 38.68H0z" fill="#c71343"></path><path fill="#4195d2" d="M0 0h62.37v122.94H0z"></path><path fill="#008296" d="M62.07 0H0v77.36h62.07V0z"></path></svg></svg> <!----></g></g></g></g></g></g> <g data-gra="path-slogan" fill-rule="" class="tp-slogan" fill="#333" transform="translate(5,47.84418487548828)"><rect x="0" height="1" y="3.580000400543213" width="27.22999382019043"></rect> <rect height="1" y="3.580000400543213" width="27.22999382019043" x="86.56999397277832"></rect> <g transform="translate(30.22999382019043,0)"><g transform="scale(1)"><path d="M0.62-3.94L0.62-3.94Q0.62-4.88 0.89-5.64Q1.15-6.40 1.62-6.92Q2.09-7.45 2.73-7.73Q3.37-8.02 4.13-8.02L4.13-8.02Q4.85-8.02 5.39-7.72Q5.93-7.43 6.28-7.04L6.28-7.04L5.71-6.41Q5.40-6.74 5.02-6.94Q4.64-7.14 4.14-7.14L4.14-7.14Q3.58-7.14 3.12-6.92Q2.66-6.70 2.34-6.28Q2.02-5.87 1.84-5.28Q1.66-4.69 1.66-3.96L1.66-3.96Q1.66-3.22 1.83-2.62Q2.00-2.03 2.32-1.61Q2.63-1.19 3.08-0.96Q3.53-0.73 4.09-0.73L4.09-0.73Q4.67-0.73 5.09-0.96Q5.52-1.19 5.90-1.61L5.90-1.61L6.47-1.00Q6-0.46 5.41-0.16Q4.82 0.14 4.07 0.14L4.07 0.14Q3.32 0.14 2.69-0.13Q2.06-0.41 1.60-0.93Q1.14-1.45 0.88-2.21Q0.62-2.98 0.62-3.94ZM7.40-2.90L7.40-2.90Q7.40-3.64 7.63-4.21Q7.85-4.78 8.22-5.17Q8.59-5.57 9.08-5.77Q9.56-5.98 10.10-5.98L10.10-5.98Q10.64-5.98 11.13-5.77Q11.62-5.57 11.99-5.17Q12.36-4.78 12.58-4.21Q12.80-3.64 12.80-2.90L12.80-2.90Q12.80-2.18 12.58-1.61Q12.36-1.04 11.99-0.65Q11.62-0.26 11.13-0.06Q10.64 0.14 10.10 0.14L10.10 0.14Q9.56 0.14 9.08-0.06Q8.59-0.26 8.22-0.65Q7.85-1.04 7.63-1.61Q7.40-2.18 7.40-2.90ZM8.42-2.90L8.42-2.90Q8.42-2.40 8.54-1.99Q8.66-1.58 8.89-1.29Q9.11-1.00 9.42-0.83Q9.73-0.67 10.10-0.67L10.10-0.67Q10.48-0.67 10.79-0.83Q11.10-1.00 11.32-1.29Q11.54-1.58 11.66-1.99Q11.78-2.40 11.78-2.90L11.78-2.90Q11.78-3.41 11.66-3.82Q11.54-4.24 11.32-4.54Q11.10-4.84 10.79-5.00Q10.48-5.16 10.10-5.16L10.10-5.16Q9.73-5.16 9.42-5.00Q9.11-4.84 8.89-4.54Q8.66-4.24 8.54-3.82Q8.42-3.41 8.42-2.90ZM14.34 0L14.34-5.83L15.16-5.83L15.24-4.99L15.28-4.99Q15.66-5.41 16.11-5.69Q16.56-5.98 17.09-5.98L17.09-5.98Q17.76-5.98 18.14-5.68Q18.52-5.39 18.70-4.86L18.70-4.86Q19.15-5.36 19.61-5.67Q20.08-5.98 20.62-5.98L20.62-5.98Q21.52-5.98 21.95-5.40Q22.39-4.82 22.39-3.70L22.39-3.70L22.39 0L21.41 0L21.41-3.56Q21.41-4.39 21.14-4.76Q20.88-5.12 20.33-5.12L20.33-5.12Q19.67-5.12 18.86-4.22L18.86-4.22L18.86 0L17.88 0L17.88-3.56Q17.88-4.39 17.62-4.76Q17.35-5.12 16.79-5.12L16.79-5.12Q16.13-5.12 15.32-4.22L15.32-4.22L15.32 0L14.34 0ZM24.29 0L24.29-5.83L25.10-5.83L25.19-4.99L25.22-4.99Q25.61-5.41 26.06-5.69Q26.51-5.98 27.04-5.98L27.04-5.98Q27.71-5.98 28.09-5.68Q28.46-5.39 28.64-4.86L28.64-4.86Q29.10-5.36 29.56-5.67Q30.02-5.98 30.56-5.98L30.56-5.98Q31.46-5.98 31.90-5.40Q32.34-4.82 32.34-3.70L32.34-3.70L32.34 0L31.36 0L31.36-3.56Q31.36-4.39 31.09-4.76Q30.83-5.12 30.28-5.12L30.28-5.12Q29.62-5.12 28.81-4.22L28.81-4.22L28.81 0L27.83 0L27.83-3.56Q27.83-4.39 27.56-4.76Q27.30-5.12 26.74-5.12L26.74-5.12Q26.08-5.12 25.27-4.22L25.27-4.22L25.27 0L24.29 0ZM33.80-2.90L33.80-2.90Q33.80-3.62 34.03-4.19Q34.25-4.76 34.61-5.16Q34.98-5.56 35.45-5.77Q35.92-5.98 36.42-5.98L36.42-5.98Q36.97-5.98 37.41-5.78Q37.85-5.59 38.14-5.23Q38.44-4.87 38.59-4.37Q38.75-3.86 38.75-3.24L38.75-3.24Q38.75-2.92 38.71-2.70L38.71-2.70L34.78-2.70Q34.84-1.75 35.36-1.20Q35.88-0.65 36.72-0.65L36.72-0.65Q37.14-0.65 37.49-0.77Q37.85-0.90 38.17-1.10L38.17-1.10L38.52-0.46Q38.14-0.22 37.67-0.04Q37.20 0.14 36.60 0.14L36.60 0.14Q36.01 0.14 35.50-0.07Q34.99-0.28 34.61-0.67Q34.24-1.06 34.02-1.62Q33.80-2.18 33.80-2.90ZM34.76-3.35L37.88-3.35Q37.88-4.25 37.51-4.72Q37.13-5.20 36.44-5.20L36.44-5.20Q36.13-5.20 35.85-5.07Q35.57-4.94 35.34-4.71Q35.11-4.48 34.96-4.13Q34.81-3.79 34.76-3.35L34.76-3.35ZM40.19 0L40.19-5.83L41.00-5.83L41.09-4.78L41.12-4.78Q41.42-5.33 41.85-5.65Q42.28-5.98 42.78-5.98L42.78-5.98Q43.13-5.98 43.40-5.86L43.40-5.86L43.21-4.99Q43.07-5.04 42.95-5.06Q42.83-5.09 42.65-5.09L42.65-5.09Q42.28-5.09 41.87-4.79Q41.47-4.49 41.17-3.74L41.17-3.74L41.17 0L40.19 0ZM43.80-2.90L43.80-2.90Q43.80-3.64 44.03-4.21Q44.26-4.78 44.64-5.17Q45.02-5.57 45.53-5.77Q46.04-5.98 46.61-5.98L46.61-5.98Q47.18-5.98 47.60-5.77Q48.01-5.56 48.31-5.28L48.31-5.28L47.82-4.64Q47.56-4.87 47.27-5.02Q46.99-5.16 46.64-5.16L46.64-5.16Q46.25-5.16 45.91-5.00Q45.58-4.84 45.34-4.54Q45.10-4.24 44.96-3.82Q44.82-3.41 44.82-2.90L44.82-2.90Q44.82-2.40 44.95-1.99Q45.08-1.58 45.32-1.29Q45.55-1.00 45.89-0.83Q46.22-0.67 46.62-0.67L46.62-0.67Q47.04-0.67 47.38-0.85Q47.72-1.02 47.99-1.26L47.99-1.26L48.43-0.61Q48.04-0.26 47.55-0.06Q47.06 0.14 46.54 0.14L46.54 0.14Q45.96 0.14 45.46-0.06Q44.95-0.26 44.59-0.65Q44.22-1.04 44.01-1.61Q43.80-2.18 43.80-2.90ZM49.02-2.90L49.02-2.90Q49.02-3.62 49.24-4.19Q49.46-4.76 49.83-5.16Q50.20-5.56 50.66-5.77Q51.13-5.98 51.64-5.98L51.64-5.98Q52.19-5.98 52.63-5.78Q53.06-5.59 53.36-5.23Q53.65-4.87 53.81-4.37Q53.96-3.86 53.96-3.24L53.96-3.24Q53.96-2.92 53.93-2.70L53.93-2.70L49.99-2.70Q50.05-1.75 50.57-1.20Q51.10-0.65 51.94-0.65L51.94-0.65Q52.36-0.65 52.71-0.77Q53.06-0.90 53.39-1.10L53.39-1.10L53.74-0.46Q53.35-0.22 52.88-0.04Q52.42 0.14 51.82 0.14L51.82 0.14Q51.23 0.14 50.72-0.07Q50.21-0.28 49.83-0.67Q49.45-1.06 49.24-1.62Q49.02-2.18 49.02-2.90ZM49.98-3.35L53.10-3.35Q53.10-4.25 52.72-4.72Q52.34-5.20 51.66-5.20L51.66-5.20Q51.35-5.20 51.07-5.07Q50.78-4.94 50.56-4.71Q50.33-4.48 50.18-4.13Q50.03-3.79 49.98-3.35L49.98-3.35Z" transform="translate(-0.624, 8.016)"></path></g></g></g></g><defs v-gra="od"></defs></svg>